<svg width="114" height="114" viewBox="0 0 114 114" fill="none" xmlns="http://www.w3.org/2000/svg"><path d="M52.746 49.633l.625-.86-1.935-1.405.254 2.378 1.056-.113zm-.197 4.797l.916.538.003-.006-.92-.532zM48.477 57l-.428-.972-2.203.97 2.2.974.43-.972zm4.062 2.57l-.922.528.007.011.915-.54zm.206 4.783l-1.057-.11-.246 2.376 1.93-1.408-.627-.858zm8.5.001l-.627.857 1.94 1.423-.256-2.393-1.056.113zm.19-4.784l-.914-.543-.007.013.921.53zm4.055-2.572l.426.974 2.202-.962-2.194-.981-.434.97zm-4.055-2.568l-.92.532.002.002.918-.534zm-.201-4.79l1.057.11.245-2.373-1.928 1.405.626.858zM23.982 30.984l.26 1.03.332-.084.22-.262-.812-.684zm3.355-3.649l.75.753h.001l-.75-.753zm13.439-9.432l.36 1 .048-.018.045-.021-.453-.961zm11.097-2.625l.096 1.058 2.936-.267-2.431-1.667-.601.876zm-11.948-2.365l.004 1.062-.004-1.062zm-21.822 4.396l.75.752.002-.001-.752-.75zm-4.389 20.977l-1.062-.02-.052 2.715 1.88-1.959-.766-.736zm1.787 25.882l1.002.353.085-.24-.033-.251-1.054.138zm2.38-23.386l.96.453.022-.045.017-.047-1-.36zm6.1-9.798l.814.684 2.122-2.523-3.196.809.26 1.03zm-10.267 7.302l.767.736-.767-.736zm.56 36.406l-.756.747 1.872 1.892-.054-2.66-1.062.021zm17.782 16.191l.998-.362-.102-.283-.236-.187-.66.832zm-4.73-4.227l-.753.75.001.001.751-.751zM17.903 73.24l.998-.364-.017-.047-.022-.046-.96.457zM15.5 64.168l1.054-.138-2.056-.215 1.002.353zm-1.227 10.524l1.062-.021-1.062.021zm4.394 20.968l-.751.75v.002l.751-.753zm20.141 4.357l-.035 1.062 2.741.092-1.964-1.915-.742.761zm26.053-1.628l.32-1.013-.233-.074-.242.036.155 1.051zm-24.126-2.306l.457-.96-.046-.022-.047-.017-.364.999zm-8.68-5.2l.66-.832-2.94-2.335 1.28 3.53 1-.363zm6.753 9.134l-.741.761.741-.761zm36.953-.57l.753.75 1.896-1.904-2.685.092.036 1.062zm24.5-25.32l1.062.021.054-2.713-1.882 1.956.766.736zm-8.486 6.646l-.444-.965-.245.113-.162.216.851.636zm-5.13 5.883l-.75-.753-.001.002.752.75zM73.15 96.118l-.357-1-.048.016-.046.022.45.962zm-8.287 2.271l-.155-1.051-.164 2.064.32-1.013zm10.9 1.058l.036 1.062-.036-1.062zm20.125-4.365l.75.753.001-.002-.751-.751zm2.764-43.69l-.901-.562-.192.307.036.361 1.057-.106zM96.114 73.17l-.963-.45-.021.045-.017.046 1 .359zm-4.338 7.602l-.85-.636 1.295 1.601-.445-.965zm8.486-6.646l-.766-.736.766.736zm.574-35.25l.776-.725-1.89-2.023.052 2.769 1.062-.02zM81.94 23.121l-1 .362.103.282.235.187.662-.831zm4.707 4.222l-.753.75.001.002.752-.752zm9.47 13.514l-1.002.355.017.048.02.046.964-.449zm2.534 10.535l-1.057.106.313 3.097 1.646-2.641-.902-.562zm2.185-12.515l-1.062.02 1.062-.02zm-4.387-21.01l.752-.75-.002-.003-.75.754zM74.665 13.48l.005-1.063-2.68-.013 1.943 1.846.732-.77zm20.818 26.172l.903-.56-1.83 1.08.927-.52zM73.235 17.9l-.454.96.045.022.047.017.362-1zm8.705 5.22l-.662.83 2.943 2.346-1.282-3.538-1 .362zm-7.275-9.641l-.732.77.732-.77zm-34.74-.567l-.72-.781-2.01 1.854 2.734-.01-.004-1.063zm11.948 2.365l-.6.877.315.216.381-.035-.096-1.058zm22.231 34.626l.982-.406-.982.406zm-.659-4.973l-1.062.007v.043l1.062-.05zm.071-4.453l1.061.057.063-1.181-1.181.063.057 1.061zm-3.05.07l.008-1.063-.544-.003-.32.439.857.627zm-9.232 9.092l-.626-.858-.382.278-.049.471 1.057.11zm.201 4.79l-.92.532.002.002.918-.534zm4.055 2.568l-.433.97.003.002.43-.972zm11.493 3.324l-.15 1.051.553.08.379-.412-.782-.72zm.186-.203l.775.726-.775-.726zm3.19-3.12l.709.793.886-.792-.886-.792-.708.792zm-27.613-7.366l-1.056.113.05.47.382.277.624-.86zm8.488.007l.626.859-.626-.859zm9.233-9.092l.857.627 1.227-1.676-2.077-.014-.007 1.063zm-6.38-.667l.41-.98-.01-.004-.4.984zm-3.968-3.07l.727-.776-.004-.003-.723.78zm-3.125-3.182l.791-.709-.791-.883-.791.883.791.71zm-6.53 5.952l-.558-.904-.726.45.281.805 1.003-.35zM48.477 57l-.43.97.428.19.43-.188-.428-.973zm4.072-2.571l.916.538.003-.006-.92-.532zm.197-4.797l-1.056.113 1.056-.113zM50.464 39.58l1.003-.35-.436-1.25-1.126.697.56.903zm-.56.3l.4.984.007-.003-.408-.98zm-4.984.65l.035 1.062h.008l-.043-1.062zm-4.459-.053l.06-1.061-1.187-.068.066 1.188 1.061-.06zm-.595 9.426l-.98-.41-.002.005.982.405zm-2.877 3.774l-.783-.719-1.364 1.486 1.997.285.15-1.052zm15.756 10.675l.626.858.382-.279.049-.47-1.057-.11zm-.206-4.783l-.922.528.007.011.915-.54zM48.477 57l.43-.971-.43.971zm-11.488-3.322l.15-1.052-.55-.079-.38.408.78.723zm-.18.197l.777.724v-.001l-.777-.723zM33.622 57l-.709-.792-.884.792.884.791.709-.791zm6.25 7.097l-.983.404.004.01.978-.414zm.645 4.966l1.062-.036-1.062.036zm-.047 4.455l-1.06-.059-.066 1.184 1.184-.064-.058-1.061zm3.041-.071l-.007 1.062.543.004.321-.438-.857-.628zm8.179-23.701c.12 1.127.165 2.102.136 2.859-.03.818-.143 1.2-.197 1.293l1.84 1.064c.34-.588.45-1.446.48-2.277.034-.893-.02-1.976-.146-3.165l-2.113.226zm-.057 4.146c-.06.102-.343.394-1.035.828-.642.403-1.51.85-2.55 1.308l.857 1.945c1.097-.483 2.064-.977 2.822-1.452.709-.445 1.394-.968 1.738-1.553l-1.832-1.076zm-3.587 4.08c1.04.46 1.91.91 2.552 1.313.696.437.968.724 1.02.813l1.843-1.057c-.339-.59-1.03-1.114-1.734-1.556-.757-.475-1.724-.97-2.82-1.456l-.86 1.943zm3.578 2.137l.01.024c.008.016.017.04.028.072.02.064.044.153.066.267.043.232.075.537.09.915.03.756-.014 1.73-.13 2.856l2.114.219c.122-1.186.174-2.267.14-3.157a8.492 8.492 0 0 0-.126-1.227c-.067-.353-.173-.728-.362-1.048l-1.83 1.08zm1.747 5.102c.916-.668 1.737-1.195 2.407-1.55.723-.383 1.11-.476 1.216-.476V61.06c-.68 0-1.477.335-2.21.723-.79.418-1.7 1.006-2.666 1.711l1.253 1.717zm3.623-2.026c.109 0 .498.094 1.223.478.67.354 1.49.88 2.4 1.548l1.257-1.714c-.962-.705-1.873-1.294-2.663-1.713-.737-.39-1.537-.724-2.217-.724v2.125zm5.308 1.056c-.12-1.126-.166-2.1-.139-2.855.03-.817.141-1.196.193-1.286l-1.842-1.06c-.337.586-.444 1.442-.474 2.27-.032.89.022 1.97.15 3.157l2.112-.226zm.047-4.129c.063-.106.35-.404 1.036-.838.639-.404 1.5-.852 2.53-1.302l-.85-1.947c-1.096.479-2.06.975-2.816 1.454-.709.448-1.386.972-1.728 1.549l1.828 1.084zm3.575-4.083c-1.03-.461-1.897-.91-2.541-1.315-.698-.437-.975-.725-1.03-.818l-1.836 1.068c.341.587 1.034 1.11 1.737 1.55.756.475 1.72.97 2.803 1.454l.867-1.94zm-3.57-2.132c-.056-.098-.168-.48-.198-1.294-.027-.755.018-1.726.135-2.853l-2.114-.219c-.122 1.184-.177 2.261-.144 3.15.03.83.139 1.687.483 2.281l1.839-1.065zm-1.746-5.115c-.914.666-1.733 1.19-2.401 1.544-.723.382-1.108.475-1.213.475v2.125c.677 0 1.473-.334 2.206-.722.787-.416 1.696-1.002 2.66-1.705l-1.252-1.717zm-3.614 2.02c-.105 0-.49-.095-1.216-.48-.67-.356-1.492-.883-2.407-1.548l-1.25 1.719c.964.7 1.873 1.288 2.66 1.706.733.389 1.532.727 2.213.727v-2.125zm-32.2-19.134a55.36 55.36 0 0 1 3.293-3.58l-1.5-1.505A57.486 57.486 0 0 0 23.17 30.3l1.626 1.368zm3.294-3.58c4.64-4.631 9.456-7.887 13.049-9.186l-.723-1.998c-3.99 1.442-9.062 4.925-13.827 9.68l1.501 1.504zm13.141-9.224c2.535-1.197 6.289-2.122 10.74-2.528l-.193-2.116c-4.599.42-8.618 1.384-11.454 2.722l.907 1.922zm11.245-4.462c-1.444-.99-3.369-1.623-5.494-2.012-2.14-.392-4.561-.55-7.06-.54l.01 2.125c2.412-.01 4.695.144 6.667.505 1.986.364 3.58.924 4.675 1.675l1.202-1.753zM39.92 11.85c-4.68.018-9.713.632-13.832 1.492-2.06.43-3.913.926-5.39 1.448-1.421.503-2.668 1.087-3.348 1.768l1.504 1.502c.308-.308 1.133-.764 2.552-1.266 1.362-.482 3.117-.955 5.116-1.372 3.997-.834 8.887-1.43 13.406-1.447l-.008-2.125zm-22.568 4.707c-.663.66-1.23 1.854-1.72 3.211-.508 1.412-.993 3.18-1.417 5.15-.85 3.942-1.476 8.777-1.564 13.348l2.125.04c.085-4.422.693-9.12 1.516-12.94.412-1.91.872-3.581 1.34-4.877.486-1.35.925-2.133 1.22-2.428l-1.5-1.504zM14.48 39.023c1.703-1.774 3.446-3.358 5.127-4.587 1.691-1.237 3.265-2.075 4.635-2.422l-.522-2.06c-1.742.441-3.57 1.451-5.368 2.767-1.809 1.323-3.644 2.996-5.405 4.83l1.533 1.471zm2.074 25.007a54.084 54.084 0 0 1-.448-7.032h-2.125c0 2.576.166 5.035.466 7.31l2.107-.278zm-.448-7.032c0-6.575 1.107-12.305 2.735-15.763l-1.923-.905c-1.81 3.843-2.937 9.917-2.937 16.668h2.125zm2.773-15.855c.961-2.664 3-6.01 5.915-9.475L23.169 30.3c-3.01 3.579-5.213 7.142-6.288 10.122l2 .721zm4.841-11.189c-1.742.441-3.57 1.451-5.368 2.767-1.809 1.323-3.644 2.996-5.405 4.83l1.533 1.471c1.703-1.773 3.446-3.357 5.127-4.586 1.691-1.237 3.265-2.075 4.635-2.422l-.522-2.06zM12.948 37.55c-3.166 3.296-6.136 7.155-8.32 10.54-1.091 1.692-1.997 3.282-2.635 4.638C1.38 54.032.937 55.275.937 56.21h2.125c0-.418.244-1.28.854-2.578.585-1.245 1.44-2.75 2.498-4.39 2.116-3.28 5.003-7.03 8.067-10.22l-1.533-1.472zM.938 56.21c0 .958.467 2.245 1.113 3.599.673 1.408 1.628 3.061 2.775 4.816 2.296 3.51 5.408 7.493 8.692 10.814l1.511-1.494c-3.172-3.208-6.197-7.077-8.424-10.483-1.114-1.703-2.017-3.272-2.637-4.57-.646-1.352-.905-2.252-.905-2.682H.937zm14.398 18.46c-.079-3.941.258-7.566 1.167-10.149l-2.004-.706c-1.036 2.941-1.368 6.867-1.287 10.898l2.124-.042zm17.38 15.381a54.934 54.934 0 0 1-4.64-4.147l-1.502 1.503a57.042 57.042 0 0 0 4.82 4.308l1.322-1.664zm-4.638-4.145c-4.617-4.636-7.87-9.439-9.176-13.03l-1.997.727c1.45 3.986 4.927 9.044 9.668 13.803l1.505-1.5zm-9.215-13.123c-1.016-2.136-1.835-5.159-2.308-8.753l-2.107.277c.49 3.729 1.354 6.986 2.496 9.389l1.92-.913zM14.5 63.815c-1.036 2.941-1.368 6.867-1.287 10.898l2.124-.042c-.079-3.942.258-7.567 1.167-10.15l-2.004-.706zm-1.287 10.898c.091 4.57.72 9.4 1.57 13.34.424 1.969.908 3.735 1.417 5.146.489 1.357 1.056 2.55 1.718 3.212l1.503-1.503c-.297-.296-.736-1.08-1.222-2.43-.467-1.295-.928-2.965-1.34-4.874-.823-3.817-1.433-8.512-1.522-12.933l-2.124.042zm4.706 21.699c.643.642 1.785 1.191 3.081 1.666 1.348.493 3.033.965 4.917 1.382a73.28 73.28 0 0 0 12.858 1.619l.071-2.124a71.066 71.066 0 0 1-12.47-1.57c-1.824-.404-3.413-.851-4.645-1.302-1.284-.47-2.027-.892-2.311-1.175l-1.501 1.504zm21.633 2.844c-3.123-3.045-5.554-6.136-6.497-8.735l-1.997.724c1.113 3.069 3.835 6.437 7.01 9.533l1.484-1.522zm25.156-1.918a53.336 53.336 0 0 1-7.725.543v2.125c2.85 0 5.564-.201 8.035-.566l-.31-2.102zm-7.725.543c-6.6 0-12.344-1.12-15.79-2.758l-.912 1.92c3.834 1.823 9.926 2.963 16.702 2.963v-2.125zM41.1 95.084c-2.384-.867-5.31-2.593-8.383-5.033l-1.321 1.664c3.181 2.526 6.308 4.395 8.978 5.366l.727-1.997zm-10.042-3.839c1.113 3.069 3.835 6.437 7.01 9.533l1.484-1.522c-3.123-3.045-5.554-6.136-6.497-8.735l-1.997.724zm7.01 9.533c3.307 3.222 7.22 6.261 10.662 8.498 1.721 1.119 3.341 2.049 4.722 2.703 1.329.63 2.594 1.083 3.543 1.083v-2.124c-.427 0-1.31-.252-2.633-.879-1.27-.602-2.805-1.48-4.474-2.565-3.337-2.169-7.14-5.122-10.336-8.238l-1.483 1.522zm18.927 12.284c.973 0 2.287-.479 3.668-1.142 1.437-.691 3.123-1.671 4.91-2.847 3.572-2.352 7.614-5.535 10.943-8.876l-1.506-1.5c-3.212 3.224-7.138 6.318-10.606 8.601-1.734 1.142-3.336 2.069-4.662 2.706-1.381.664-2.304.934-2.747.934v2.124zm18.732-14.677c-4.03.137-7.797-.144-10.544-1.01l-.639 2.027c3.085.972 7.133 1.247 11.255 1.107l-.072-2.124zm23.77-24.994c-2.795 2.905-5.659 5.263-8.164 6.417l.889 1.93c2.867-1.32 5.95-3.906 8.807-6.874l-1.532-1.473zm-8.57 6.746a53.235 53.235 0 0 1-5.03 5.766l1.501 1.505a55.346 55.346 0 0 0 5.23-5.999l-1.702-1.272zm-5.031 5.768c-4.659 4.669-9.504 7.929-13.103 9.212l.714 2.002c4.002-1.428 9.107-4.917 13.893-9.713l-1.504-1.5zm-13.197 9.25c-1.991.933-4.735 1.703-7.99 2.183l.31 2.102c3.386-.5 6.346-1.313 8.581-2.36l-.9-1.924zm-8.155 4.247c3.085.972 7.133 1.247 11.255 1.107l-.072-2.124c-4.03.137-7.797-.144-10.544-1.01l-.639 2.027zm11.255 1.107a73.319 73.319 0 0 0 12.846-1.625c1.88-.418 3.565-.89 4.911-1.383 1.296-.476 2.437-1.025 3.081-1.666l-1.499-1.506c-.286.285-1.03.706-2.313 1.177-1.232.451-2.82.899-4.641 1.303a71.046 71.046 0 0 1-12.457 1.576l.072 2.124zm20.84-4.676c.66-.66 1.225-1.851 1.711-3.206.507-1.409.99-3.174 1.412-5.142.847-3.937 1.473-8.767 1.563-13.337l-2.124-.041c-.088 4.421-.696 9.116-1.516 12.931-.41 1.909-.87 3.577-1.334 4.87-.485 1.349-.921 2.13-1.215 2.422l1.503 1.503zm.956-44.335c.176 1.745.273 3.589.273 5.5h2.125c0-1.982-.1-3.897-.284-5.713l-2.114.213zm.273 5.5c0 6.549-1.1 12.262-2.716 15.723l1.925.9c1.796-3.844 2.916-9.898 2.916-16.623h-2.125zm-2.754 15.815c-.75 2.097-2.174 4.63-4.188 7.324l1.702 1.272c2.094-2.801 3.643-5.523 4.487-7.88l-2-.716zm-2.892 8.925c2.867-1.32 5.95-3.906 8.807-6.874l-1.532-1.473c-2.795 2.905-5.659 5.263-8.164 6.417l.889 1.93zm8.807-6.874c3.17-3.295 6.146-7.154 8.334-10.538 1.094-1.692 2.003-3.282 2.642-4.637.615-1.303 1.058-2.545 1.058-3.48h-2.124c0 .416-.244 1.277-.856 2.573-.587 1.245-1.443 2.75-2.504 4.39-2.121 3.28-5.014 7.03-8.082 10.219l1.532 1.473zm12.034-18.654c0-.91-.418-2.107-.999-3.36-.604-1.302-1.463-2.828-2.5-4.456a73.198 73.198 0 0 0-7.951-10.242l-1.552 1.451a71.06 71.06 0 0 1 7.711 9.933c1.004 1.576 1.812 3.017 2.364 4.208.575 1.24.803 2.064.803 2.466h2.124zM99.774 38.898c.047 2.493-.073 4.873-.406 6.946-.335 2.088-.874 3.792-1.618 4.986l1.803 1.124c.956-1.534 1.557-3.553 1.913-5.773.359-2.234.481-4.747.432-7.324l-2.124.04zM81.278 23.952a54.209 54.209 0 0 1 4.616 4.141l1.506-1.5a56.323 56.323 0 0 0-4.798-4.303l-1.324 1.662zm4.617 4.143c4.674 4.675 7.947 9.526 9.22 13.117l2.003-.71c-1.418-4-4.924-9.112-9.72-13.91l-1.503 1.503zm9.258 13.21c1.131 2.432 2.017 5.991 2.441 10.193l2.115-.213c-.439-4.344-1.364-8.156-2.63-10.876l-1.926.897zm4.4 10.649c.956-1.534 1.557-3.553 1.914-5.773.358-2.234.48-4.747.431-7.324l-2.124.04c.047 2.494-.073 4.874-.406 6.947-.335 2.088-.874 3.792-1.618 4.986l1.803 1.124zm2.345-13.097c-.086-4.575-.712-9.415-1.56-13.363-.424-1.973-.908-3.744-1.417-5.158-.49-1.36-1.057-2.556-1.72-3.22l-1.503 1.503c.298.297.737 1.084 1.224 2.436.467 1.299.927 2.973 1.338 4.886.822 3.826 1.43 8.53 1.514 12.957l2.124-.04zm-4.7-21.743c-.679-.675-1.922-1.256-3.34-1.756-1.474-.52-3.322-1.014-5.378-1.443-4.111-.858-9.135-1.474-13.81-1.498l-.01 2.125c4.514.023 9.395.62 13.386 1.453 1.995.417 3.746.888 5.106 1.368 1.416.5 2.24.952 2.548 1.258l1.499-1.507zM73.934 14.25c3.36 3.194 6.011 6.484 7.008 9.233l1.998-.724c-1.173-3.236-4.133-6.81-7.542-10.05l-1.464 1.54zm23.155 26.179a10.62 10.62 0 0 0-.702-1.337l-1.806 1.12c.21.337.39.68.564 1.074l1.944-.857zm-2.531-.257c.226.403.42.735.587 1.114l1.944-.857c-.219-.497-.477-.938-.678-1.297l-1.853 1.04zM56.994 16.111c6.592 0 12.333 1.114 15.787 2.75l.91-1.92c-3.842-1.82-9.93-2.955-16.697-2.955v2.124zm15.88 2.789c2.382.864 5.32 2.595 8.404 5.052l1.324-1.662c-3.195-2.545-6.335-4.42-9.004-5.388l-.725 1.998zm10.065 3.859c-1.173-3.236-4.133-6.81-7.542-10.05l-1.464 1.54c3.36 3.195 6.011 6.485 7.008 9.234l1.998-.724zm-7.542-10.05c-3.278-3.115-7.08-6.026-10.409-8.163-1.664-1.068-3.227-1.954-4.561-2.577-1.283-.6-2.508-1.032-3.433-1.032v2.125c.413 0 1.26.237 2.534.832 1.222.571 2.7 1.405 4.312 2.44 3.224 2.07 6.919 4.899 10.093 7.916l1.464-1.54zM56.994.938c-.9 0-2.079.408-3.31.976-1.28.59-2.78 1.428-4.378 2.441-3.2 2.027-6.869 4.794-10.101 7.777l1.44 1.562c3.136-2.894 6.703-5.583 9.798-7.544 1.548-.98 2.96-1.768 4.13-2.306 1.216-.56 2.024-.781 2.42-.781V.937zM39.929 13.975c2.413-.01 4.696.144 6.668.505 1.986.364 3.58.924 4.675 1.675l1.202-1.753c-1.444-.99-3.369-1.623-5.494-2.012-2.14-.392-4.561-.55-7.06-.54l.01 2.125zm12.04 2.361a55.55 55.55 0 0 1 5.025-.226v-2.124c-1.805 0-3.551.083-5.217.234l.192 2.116zm23.117 33.162c-.104-.25-.229-.8-.34-1.656a37.84 37.84 0 0 1-.24-2.96l-2.122.1c.054 1.157.14 2.234.255 3.132.112.865.263 1.662.483 2.196l1.964-.812zm-.578-4.573c-.009-1.415-.009-2.933.07-4.39l-2.123-.113c-.081 1.526-.081 3.099-.072 4.516l2.125-.013zm-1.049-5.508a49.82 49.82 0 0 1-2.985.069l-.014 2.124a51.748 51.748 0 0 0 3.113-.07l-.114-2.123zm-3.85.504c-2.448 3.346-6.093 6.741-9 8.86l1.25 1.718c3.05-2.223 6.864-5.768 9.465-9.324l-1.715-1.254zm-9.432 9.61c-.122 1.184-.177 2.261-.144 3.15.03.83.139 1.687.483 2.281l1.839-1.065c-.057-.098-.169-.48-.199-1.294-.027-.755.018-1.726.135-2.853l-2.114-.219zm.34 5.433c.341.587 1.034 1.11 1.737 1.55.756.475 1.72.97 2.803 1.454l.867-1.94c-1.03-.46-1.897-.91-2.541-1.314-.698-.437-.975-.725-1.03-.818l-1.836 1.068zm4.543 3.006c3.189 1.413 7.667 2.82 11.773 3.404l.3-2.104c-3.89-.554-8.18-1.898-11.212-3.243l-.861 1.943zm12.705 3.07c.078-.084.118-.13.18-.195l-1.552-1.453-.193.21 1.565 1.439zm.18-.195a50.053 50.053 0 0 1 3.123-3.053l-1.416-1.585a52.154 52.154 0 0 0-3.259 3.185l1.551 1.453zm3.123-4.637a48.428 48.428 0 0 1-3.942-3.964 25.536 25.536 0 0 1-1.379-1.691c-.37-.505-.58-.86-.66-1.055l-1.965.811c.183.443.52.967.912 1.502.406.552.917 1.177 1.496 1.836a50.544 50.544 0 0 0 4.121 4.145l1.417-1.584zm-28.946-5.715c.963.7 1.872 1.288 2.66 1.706.732.389 1.53.727 2.212.727v-2.125c-.105 0-.49-.094-1.216-.48-.67-.355-1.492-.882-2.407-1.547l-1.25 1.719zm4.872 2.433c.677 0 1.473-.334 2.206-.722.787-.416 1.696-1.002 2.66-1.705l-1.252-1.717c-.914.666-1.733 1.19-2.401 1.544-.723.382-1.108.475-1.213.475v2.125zM61.86 50.5c3.05-2.223 6.863-5.768 9.464-9.324l-1.715-1.254c-2.448 3.346-6.093 6.741-9 8.86l1.25 1.718zm8.614-11.014a40.91 40.91 0 0 1-3.811-.186c-1.12-.116-1.855-.268-2.167-.398l-.82 1.96c.632.265 1.652.437 2.77.552 1.158.119 2.552.188 4.014.197l.014-2.124zm-5.988-.588c-.254-.103-.734-.404-1.413-.933a33.605 33.605 0 0 1-2.227-1.928l-1.453 1.55c.84.787 1.656 1.495 2.374 2.055.692.538 1.371 1.002 1.92 1.225l.8-1.97zm-3.644-2.865a48.287 48.287 0 0 1-3.057-3.112l-1.582 1.418a50.446 50.446 0 0 0 3.194 3.252l1.445-1.558zm-4.64-3.112c-2.275 2.541-4.926 4.91-6.296 5.757l1.117 1.808c1.628-1.006 4.44-3.552 6.763-6.147l-1.584-1.418zm-6.74 7.012c1.154 3.304 1.925 6.97 2.228 9.814l2.113-.225c-.32-3-1.125-6.826-2.336-10.29l-2.006.7zm-.557 18.04c1.097-.482 2.064-.976 2.822-1.451.709-.445 1.394-.968 1.738-1.553l-1.832-1.076c-.06.102-.343.394-1.035.828-.642.403-1.51.85-2.55 1.308l.857 1.945zm4.563-3.01c.34-.588.45-1.446.482-2.277.033-.893-.02-1.976-.147-3.165l-2.113.226c.12 1.127.165 2.102.136 2.859-.03.818-.143 1.2-.197 1.293l1.84 1.064zm.335-5.441c-.32-3-1.125-6.826-2.336-10.29l-2.006.7c1.155 3.306 1.926 6.97 2.229 9.815l2.113-.225zm-3.898-10.843a3.116 3.116 0 0 1-.41.222l.816 1.962a5.15 5.15 0 0 0 .713-.377l-1.12-1.807zm-.403.22c-.26.105-.816.232-1.668.342-.823.105-1.837.185-2.956.23l.084 2.123a36.85 36.85 0 0 0 3.142-.246c.87-.111 1.665-.264 2.2-.482l-.802-1.968zm-4.617.571a49.588 49.588 0 0 1-4.364-.052l-.12 2.122c1.537.087 3.115.102 4.554.054l-.07-2.124zM39.4 40.537c.107 1.923.091 3.92-.016 5.583-.053.833-.129 1.57-.22 2.167-.095.618-.197 1.014-.278 1.207l1.96.82c.186-.443.318-1.051.418-1.705a27.46 27.46 0 0 0 .24-2.352c.113-1.75.13-3.83.018-5.838l-2.122.118zm-.516 8.962c-.097.237-.377.69-.87 1.334a32.29 32.29 0 0 1-1.808 2.126l1.565 1.437a34.358 34.358 0 0 0 1.93-2.271c.504-.659.936-1.301 1.148-1.817l-1.965-.809zm-2.045 5.23c3.887.554 8.175 1.9 11.208 3.243l.86-1.943c-3.188-1.412-7.664-2.819-11.768-3.403l-.3 2.104zm16.963 9.733c.122-1.186.174-2.267.14-3.157a8.492 8.492 0 0 0-.126-1.227c-.067-.353-.173-.728-.362-1.048l-1.83 1.08s.004.006.01.023c.008.016.017.04.028.072.021.064.044.153.066.267.043.232.075.537.09.915.03.756-.014 1.73-.13 2.856l2.114.219zm-.341-5.42c-.339-.59-1.03-1.115-1.734-1.557-.757-.475-1.724-.97-2.82-1.456l-.86 1.943c1.04.46 1.908.91 2.55 1.313.697.437.969.724 1.02.813l1.844-1.057zm-4.554-3.013c-3.188-1.412-7.664-2.819-11.768-3.403l-.3 2.104c3.887.553 8.175 1.9 11.208 3.242l.86-1.943zM36.21 52.955l-.098.107-.082.09 1.557 1.446.099-.108.081-.09-1.557-1.445zm-.179.196a49.283 49.283 0 0 1-3.118 3.057l1.418 1.583a51.469 51.469 0 0 0 3.255-3.192l-1.555-1.448zm-3.117 4.64a48.305 48.305 0 0 1 3.938 3.965 25.15 25.15 0 0 1 1.377 1.691c.37.505.58.86.66 1.054l1.965-.808c-.182-.444-.52-.968-.91-1.502a27.609 27.609 0 0 0-1.495-1.837 50.42 50.42 0 0 0-4.118-4.146l-1.418 1.583zm5.98 6.72c.103.245.231.79.34 1.641.105.819.182 1.832.221 2.948l2.124-.074a34.997 34.997 0 0 0-.237-3.144c-.111-.868-.266-1.666-.492-2.2l-1.957.83zm.561 4.589c.047 1.377.036 2.89-.045 4.36l2.121.117c.085-1.536.097-3.112.048-4.55l-2.124.073zm1.073 5.479c.991-.054 2-.076 2.976-.07l.015-2.124a51.134 51.134 0 0 0-3.106.072l.115 2.122zm3.84-.504c2.453-3.347 6.096-6.743 9.003-8.864l-1.253-1.717c-3.049 2.225-6.858 5.77-9.464 9.325l1.714 1.256z" fill="#8b8d90"/><path d="M61.277 64.35l1.057-.113-.05-.467-.379-.277-.628.857zm-8.5-.001l.627.858-.626-.858zm-9.231 9.086l-.857-.629-1.23 1.677 2.08.014.007-1.062zm6.39.67l-.406.982.006.003.4-.984zm3.967 3.056l.724-.777-.003-.004-.72.781zm3.12 3.181l-.79.71.79.882.792-.882-.791-.71zm6.536-5.947l.556.905.73-.447-.283-.808-1.003.35zM65.521 57l.43-.971-.426-.19-.429.187.425.974zm-4.054 2.569l-.914-.543-.007.012.92.531zm-.19 4.78l-1.056.113 1.056-.113zm2.282 10.045l-1.003.35.435 1.245 1.124-.69-.556-.905zm.546-.29l.405.983.011-.005-.416-.977zm4.98-.652l-.035-1.062h-.004l.04 1.062zm4.453.052l-.06 1.06 1.187.068-.066-1.187-1.061.059zm.595-9.412l.98.41.004-.007.003-.008-.987-.395zm2.879-3.772l.78.722 1.376-1.488-2.007-.286-.15 1.052zm-3.537-15.377l-1.063.007v.022l.001.021 1.062-.05zm.658 4.968l.982-.405-.982.406zm6.255 7.09l-.708.792.708.633.709-.633-.709-.792zm1.32-1.13l.672.824.3-.245.071-.38-1.043-.198zm1.6-5.277l-.993-.378-.003.008.996.37zm2.325-5.435l.957.462.517-1.073-1.125-.392-.35 1.003zm-11.255-5.5l-.753.749.008.008.745-.758zm-.697-.891l.88-.595-1.647-2.436-.29 2.926 1.057.105zm-.135 1.726l-1.061-.061v.005l1.06.056zm8.162 15.378l1.043.2.55-2.874-2.266 1.851.673.823zm-1.32 1.13l.708.792-.708-.793zm-3.19 3.115l.775.727-.775-.727zm-.186.203l.78.722.001-.002-.782-.72zm-2.879 3.772l.98.41.004-.007.003-.008-.987-.395zm-.595 9.412l-1.061.06.053.947.948.054.06-1.061zm1.744.136l-.107 1.057.385.039.32-.218-.598-.878zm4.868-2.608l-.437-.968-.002.001.44.967zm5.483-2.193l.35 1.003 1.123-.392-.516-1.071-.957.46zm-16.547 4.613l-.036-1.062h-.004l.04 1.062zm-4.981.653l.405.982.011-.005-.416-.977zm-.546.289l-.556-.906.556.906zm-6.535 5.948l-.792-.71-.635.71.635.708.792-.709zm1.135 1.322l-.821.674.244.298.379.072.198-1.044zm5.275 1.6l.374-.995-.003-.001-.37.996zm5.435 2.319l-.46.957 1.07.514.392-1.12-1.002-.352zm5.51-11.239l-.741-.762-.005.005-.005.005.75.752zm.903-.704l.597.879 2.418-1.644-2.909-.292-.106 1.057zm-1.744-.136l-.06 1.06.06-1.06zM53.903 77.16l.724-.777-.003-.004-.72.781zm-3.966-3.055l-.407.981.006.003.4-.984zm-6.391-.671l.007-1.063-.007 1.063zm-3.04.07l-.058-1.06-.951.052-.053.95 1.061.059zm-.133 1.733l-1.058-.105-.038.384.217.318.879-.597zm2.605 4.875l.968-.44-.003-.005-.965.445zm2.2 5.474l-1.003.352.394 1.12 1.07-.514-.461-.958zm12.98-3.922l-.197 1.044 2.877.544-1.858-2.263-.821.675zm-1.134-1.323l.791-.708-.791.709zM40.552 69.055l1.062-.037-1.062.037zm-.645-4.962l-.983.405.004.01.979-.415zm-6.249-7.09l.708-.793-.709-.634-.708.635.71.791zm-1.316 1.129l-.674-.822-.297.243-.073.378 1.044.2zm-1.598 5.274l.994.376.004-.01-.998-.366zm-2.331 5.432l-.957-.462-.517 1.071 1.122.394.352-1.003zm11.254 5.507l-.752.752.006.005.746-.757zm.706.893l-.88.597 1.647 2.427.29-2.919-1.057-.105zm.132-1.732l-1.06-.059 1.06.059zm-3.66-19.626l.776.724h.001l-.778-.724zm.18-.197l.778.723.004-.004-.783-.719zm2.877-3.77l-.98-.41-.003.005.983.404zm.594-9.418l1.06-.059-.052-.947-.947-.055-.061 1.06zm-1.718-.134l.106-1.057-.385-.039-.319.218.598.878zm-4.883 2.598l-.439-.967.439.967zm-5.475 2.2l-.352-1.003-1.12.393.514 1.07.958-.46zm3.922 12.973l-1.044-.2-.553 2.882 2.27-1.86-.673-.822zm1.316-1.13l-.709-.791.71.791zm11.296-16.454l.035 1.062h.008l-.043-1.062zm4.983-.65l.4.985.007-.003-.407-.981zm.56-.299l-.558-.904.559.904zm6.53-5.947l.79.71.636-.71-.636-.709-.79.71zm-1.138-1.326l.822-.673-.245-.299-.38-.072-.197 1.044zm-5.271-1.59l-.373.996h.004l.369-.995zm-5.444-2.322l.46-.958-1.07-.514-.393 1.12 1.003.352zm-5.507 11.245l-.752-.75.752.75zm-.889.702l-.597-.879-2.42 1.645 2.911.291.106-1.057zm1.718.134l-.06 1.06.06-1.06zm19.655-3.663l.726-.776-.003-.004-.723.78zm3.967 3.067l.41-.98-.011-.005-.4.985zm6.379.666l.007-1.063-.007 1.063zm3.049-.07l.057 1.061.949-.05.054-.95-1.06-.06zm.135-1.726l1.057.105.038-.382-.215-.318-.88.595zm-2.605-4.872l-.968.44.004.007.964-.447zm-2.202-5.484l1.003-.352-.392-1.12-1.07.514.46.958zM55.89 32.326l.198-1.044-2.874-.545L55.067 33l.822-.674zm1.137 1.326l-.79.71.79-.71zm35.04 3.298l.012-1.062h-.02l.009 1.063zm-6.433 8.21l.957.462-.957-.462zm-2.325 5.435l-.993-.378-.003.008.996.37zm-1.6 5.278l1.043.2v-.002l-1.043-.198zm3.925 12.967l-.958.461.412.856.896-.314-.35-1.003zm10.357-1.26l.756-.747-.008-.007-.748.754zm.528 4.377l1.029.266v-.005l-1.029-.261zm-.379 1.202l-1-.358 1.963.808-.963-.45zm2.538-21.76l1.057-.107-1.057.107zm-2.535-10.525l-.972.43.004.009.005.01.963-.449zm-.633-1.204l.926-.52-.005-.01-.004-.008-.917.538zM61.905 63.493c-.962-.705-1.872-1.293-2.663-1.711-.736-.39-1.536-.724-2.216-.724v2.125c.109 0 .499.095 1.223.477.67.355 1.49.88 2.4 1.547l1.256-1.714zm-4.88-2.435c-.678 0-1.475.334-2.209.723-.788.417-1.699 1.005-2.665 1.71l1.253 1.716c.915-.668 1.736-1.194 2.406-1.548.723-.383 1.11-.476 1.216-.476v-2.125zm-4.873 2.432c-3.049 2.223-6.858 5.765-9.463 9.316l1.714 1.257c2.452-3.343 6.094-6.736 9-8.856l-1.251-1.717zm-8.614 11.007c1.41.01 2.736.079 3.816.19 1.122.117 1.861.27 2.176.4l.814-1.963c-.631-.261-1.652-.434-2.77-.55a43.069 43.069 0 0 0-4.02-.202l-.016 2.125zm5.998.593c.245.1.717.394 1.395.92a35.8 35.8 0 0 1 2.252 1.932l1.44-1.561a37.873 37.873 0 0 0-2.39-2.05c-.688-.534-1.358-.99-1.895-1.21l-.802 1.969zm3.643 2.849a49.606 49.606 0 0 1 3.053 3.113l1.583-1.419a51.797 51.797 0 0 0-3.188-3.249l-1.448 1.555zm4.636 3.113c2.281-2.546 4.938-4.916 6.3-5.752l-1.112-1.81c-1.623.996-4.442 3.545-6.77 6.143l1.582 1.419zm6.747-7.007c-1.153-3.302-1.923-6.967-2.228-9.808l-2.113.226c.321 2.997 1.126 6.82 2.335 10.282l2.006-.7zm.534-18.018c-1.096.479-2.06.975-2.816 1.453-.708.448-1.385.971-1.727 1.547l1.827 1.086c.063-.107.35-.404 1.036-.837.639-.404 1.5-.852 2.53-1.301l-.85-1.948zm-4.55 3.012c-.338.587-.445 1.443-.475 2.27-.032.888.023 1.968.15 3.154l2.113-.226c-.12-1.125-.166-2.097-.139-2.852.03-.817.14-1.195.192-1.285l-1.841-1.06zm-.325 5.424c.321 2.997 1.126 6.82 2.335 10.282l2.006-.7c-1.153-3.302-1.923-6.967-2.228-9.808l-2.113.226zm3.894 10.838a2.97 2.97 0 0 1 .395-.213l-.81-1.964a5.066 5.066 0 0 0-.697.365l1.112 1.811zm.406-.218c.242-.102.79-.231 1.65-.341a33.99 33.99 0 0 1 2.955-.227l-.08-2.124a36.083 36.083 0 0 0-3.147.243c-.87.112-1.676.266-2.21.494l.832 1.955zm4.6-.568a49.48 49.48 0 0 1 4.357.05l.12-2.12a51.592 51.592 0 0 0-4.548-.054l.071 2.124zm5.478-1.07a48.144 48.144 0 0 1 .015-5.573c.054-.83.13-1.567.221-2.163.096-.617.198-1.013.278-1.205l-1.96-.821c-.185.442-.317 1.05-.418 1.703a27.42 27.42 0 0 0-.241 2.35 50.248 50.248 0 0 0-.017 5.828l2.122-.118zm.521-8.957c.096-.241.372-.692.864-1.332a31.259 31.259 0 0 1 1.807-2.113l-1.56-1.443c-.744.805-1.41 1.58-1.933 2.262-.505.658-.939 1.305-1.151 1.837l1.973.789zm2.041-5.219c-3.888-.553-8.177-1.896-11.21-3.24l-.86 1.943c3.188 1.413 7.666 2.817 11.77 3.401l.3-2.104zm-4.748-14.275c.055 1.157.14 2.234.256 3.13.111.865.262 1.661.483 2.195l1.963-.813c-.103-.25-.228-.799-.339-1.653a37.77 37.77 0 0 1-.24-2.958l-2.123.1zm.738 5.324c.183.443.52.967.913 1.5.405.552.916 1.177 1.496 1.836a50.53 50.53 0 0 0 4.12 4.14l1.416-1.584a48.412 48.412 0 0 1-3.941-3.96 25.536 25.536 0 0 1-1.379-1.69c-.37-.505-.58-.858-.66-1.053l-1.965.811zm7.946 7.476c.428-.383.857-.75 1.283-1.098l-1.345-1.646a40.3 40.3 0 0 0-1.355 1.16l1.416 1.584zm1.654-1.723c.231-1.212.784-3.04 1.552-5.105l-1.991-.741c-.785 2.108-1.385 4.065-1.648 5.45l2.087.396zm1.55-5.097a69.493 69.493 0 0 1 2.288-5.352l-1.913-.923a71.594 71.594 0 0 0-2.361 5.518l1.986.757zm1.681-6.817a63.355 63.355 0 0 1-6.869-2.865 34.775 34.775 0 0 1-2.572-1.385c-.716-.432-1.185-.776-1.417-1.005l-1.491 1.515c.417.41 1.063.859 1.81 1.31a37.04 37.04 0 0 0 2.732 1.472 65.438 65.438 0 0 0 7.108 2.965l.7-2.007zm-10.85-5.247c-.136-.136-.328-.377-.57-.736l-1.761 1.19c.27.4.549.768.824 1.045l1.506-1.499zm-2.508-.246c-.058.578-.104 1.17-.14 1.77l2.122.123c.034-.572.078-1.135.132-1.683l-2.114-.21zm-.14 1.775c-.08 1.525-.08 3.096-.072 4.512l2.125-.013c-.009-1.413-.008-2.93.07-4.386l-2.122-.113zM82.637 57c0-.192.033-.5.115-.929l-2.087-.399c-.092.48-.153.939-.153 1.328h2.125zm-1.6-1.951a40.3 40.3 0 0 0-1.356 1.16l1.416 1.584c.428-.383.858-.75 1.284-1.098l-1.345-1.646zm-1.356 1.16a52.174 52.174 0 0 0-3.258 3.182l1.551 1.453a50.012 50.012 0 0 1 3.123-3.05L79.68 56.21zm-3.258 3.182c-.066.07-.145.158-.192.21l1.563 1.439c.078-.085.118-.13.18-.196l-1.55-1.453zm-.19.208a33.43 33.43 0 0 0-1.934 2.262c-.505.658-.939 1.305-1.151 1.837l1.973.789c.096-.241.372-.692.864-1.332a31.259 31.259 0 0 1 1.807-2.113l-1.56-1.443zm-3.079 4.083c-.185.442-.317 1.05-.418 1.703a27.457 27.457 0 0 0-.241 2.35 50.271 50.271 0 0 0-.017 5.828l2.122-.118a48.144 48.144 0 0 1 .015-5.574c.054-.83.13-1.567.221-2.163.096-.617.198-1.013.278-1.205l-1.96-.821zm.325 10.883a38.98 38.98 0 0 1 1.697.132l.213-2.114a40.982 40.982 0 0 0-1.79-.14l-.12 2.122zm2.401-.047c1.021-.694 2.69-1.6 4.711-2.519l-.88-1.934c-2.074.943-3.865 1.906-5.026 2.697l1.195 1.756zM80.59 72a67.23 67.23 0 0 1 5.395-2.158l-.702-2.006a69.33 69.33 0 0 0-5.57 2.228L80.589 72zm6.001-3.621a64.61 64.61 0 0 1-2.83-6.88 34.222 34.222 0 0 1-.839-2.794c-.2-.811-.285-1.383-.285-1.705H80.51c0 .59.139 1.367.347 2.213.213.867.519 1.88.891 2.972a66.737 66.737 0 0 0 2.926 7.115l1.915-.921zM69.046 72.39a36.084 36.084 0 0 0-3.147.243c-.87.112-1.676.266-2.21.494l.832 1.955c.242-.102.79-.231 1.65-.341a33.988 33.988 0 0 1 2.955-.227l-.08-2.124zm-5.347.733a5.066 5.066 0 0 0-.696.365l1.112 1.811c.181-.111.313-.178.395-.212l-.81-1.964zm-.696.365c-1.623.997-4.442 3.546-6.77 6.144l1.582 1.419c2.281-2.546 4.938-4.916 6.3-5.752l-1.112-1.81zm-6.771 7.562c.385.43.755.86 1.106 1.288l1.642-1.349a41.31 41.31 0 0 0-1.165-1.356l-1.583 1.417zm1.729 1.658c1.209.23 3.024.779 5.103 1.551l.74-1.991c-2.121-.789-4.065-1.385-5.447-1.648l-.396 2.088zm5.1 1.55a66.615 66.615 0 0 1 5.348 2.282l.92-1.915a68.739 68.739 0 0 0-5.521-2.356l-.747 1.99zm6.81 1.676a64.482 64.482 0 0 1 2.867-6.861 34.15 34.15 0 0 1 1.384-2.568c.433-.715.778-1.18 1.007-1.409l-1.502-1.504c-.418.418-.87 1.066-1.322 1.811a36.259 36.259 0 0 0-1.474 2.732 66.627 66.627 0 0 0-2.965 7.096l2.005.703zm5.248-10.828a5.93 5.93 0 0 1 .76-.587l-1.194-1.758a7.953 7.953 0 0 0-1.047.821l1.48 1.524zm.269-2.523a40.982 40.982 0 0 0-1.79-.14l-.12 2.122a38.98 38.98 0 0 1 1.697.132l.213-2.114zm-1.79-.14a51.592 51.592 0 0 0-4.548-.053l.071 2.124a49.48 49.48 0 0 1 4.357.05l.12-2.12zM54.624 76.38a37.873 37.873 0 0 0-2.39-2.049c-.689-.534-1.359-.99-1.896-1.21l-.802 1.969c.245.1.717.394 1.395.92a35.772 35.772 0 0 1 2.252 1.932l1.44-1.561zm-4.28-3.256c-.631-.261-1.652-.434-2.77-.55a43.069 43.069 0 0 0-4.02-.202l-.016 2.125c1.41.01 2.736.079 3.816.19 1.122.117 1.861.27 2.176.4l.814-1.963zm-6.791-.752a51.279 51.279 0 0 0-3.105.073l.115 2.122c.99-.054 2-.076 2.976-.07l.014-2.125zm-4.108 1.076a38.433 38.433 0 0 1-.13 1.685l2.115.21c.057-.58.103-1.175.136-1.779l-2.122-.116zm.049 2.387c.694 1.022 1.588 2.708 2.52 4.724l1.929-.891c-.946-2.046-1.898-3.859-2.692-5.027l-1.757 1.194zm2.517 4.718a66.795 66.795 0 0 1 2.164 5.386l2.005-.704a68.905 68.905 0 0 0-2.234-5.561l-1.935.879zm3.627 5.992a64.575 64.575 0 0 1 6.883-2.828 34.244 34.244 0 0 1 2.796-.838c.812-.2 1.385-.285 1.709-.285v-2.125c-.591 0-1.369.139-2.216.346-.867.214-1.882.519-2.974.891a66.64 66.64 0 0 0-7.118 2.923l.92 1.916zm11.388-3.951c.196 0 .506.034.935.115l.395-2.088c-.479-.09-.939-.152-1.33-.152v2.125zm1.954-1.603c-.371-.452-.76-.906-1.165-1.357l-1.583 1.417c.385.43.755.86 1.106 1.288l1.642-1.349zm-1.165-1.358a51.797 51.797 0 0 0-3.188-3.249l-1.448 1.555a49.606 49.606 0 0 1 3.053 3.113l1.583-1.419zM41.614 69.018a34.97 34.97 0 0 0-.237-3.142c-.111-.867-.266-1.664-.492-2.197l-1.957.829c.104.244.232.789.341 1.639.105.817.182 1.83.221 2.945l2.124-.074zm-.725-5.33c-.183-.443-.52-.966-.91-1.5a27.49 27.49 0 0 0-1.495-1.836 50.387 50.387 0 0 0-4.118-4.142l-1.416 1.584a48.26 48.26 0 0 1 3.938 3.961c.55.627 1.02 1.202 1.377 1.69.37.505.579.858.66 1.053l1.964-.81zm-7.94-7.477c-.428.383-.856.75-1.28 1.099l1.346 1.644c.45-.37.902-.758 1.352-1.16L32.95 56.21zm-1.65 1.72c-.234 1.212-.79 3.031-1.552 5.11l1.995.731c.774-2.11 1.376-4.057 1.643-5.44l-2.087-.401zm-1.549 5.1a67.198 67.198 0 0 1-2.294 5.345l1.914.924a69.332 69.332 0 0 0 2.368-5.518l-1.988-.751zm-1.689 6.81a64.842 64.842 0 0 1 6.874 2.868c1 .49 1.875.962 2.572 1.383.716.433 1.18.777 1.409 1.005l1.502-1.503c-.417-.417-1.065-.869-1.811-1.32a36.373 36.373 0 0 0-2.735-1.472 66.97 66.97 0 0 0-7.108-2.967l-.703 2.006zm10.86 5.26c.135.134.328.373.572.734l1.759-1.193c-.273-.403-.557-.775-.84-1.053l-1.491 1.513zm2.509.242c.057-.58.103-1.175.136-1.779l-2.122-.116a38.433 38.433 0 0 1-.129 1.685l2.115.21zm.136-1.778a51.63 51.63 0 0 0 .048-4.547l-2.124.074a49.446 49.446 0 0 1-.046 4.355l2.122.118zm-3.944-18.962a11.353 11.353 0 0 0 .18-.197l-1.556-1.446-.099.107-.081.09 1.556 1.446zm.185-.201a34.387 34.387 0 0 0 1.928-2.27c.505-.657.937-1.3 1.149-1.815l-1.965-.81c-.097.237-.377.689-.87 1.333-.475.62-1.096 1.35-1.807 2.124l1.565 1.438zm3.075-4.08c.185-.441.317-1.05.417-1.703.104-.675.185-1.477.24-2.35.113-1.748.13-3.828.018-5.833l-2.122.118a48.45 48.45 0 0 1-.016 5.578 25.35 25.35 0 0 1-.22 2.165c-.095.618-.197 1.013-.278 1.205l1.96.82zm-.325-10.888a39.77 39.77 0 0 1-1.673-.13l-.212 2.114c.577.058 1.166.103 1.763.138l.122-2.122zm-2.377.049c-1.017.692-2.698 1.59-4.724 2.509l.878 1.935c2.069-.939 3.877-1.895 5.042-2.688l-1.196-1.756zm-4.724 2.509a66.63 66.63 0 0 1-5.388 2.164l.704 2.005a68.749 68.749 0 0 0 5.563-2.235l-.88-1.934zm-5.994 3.627a64.645 64.645 0 0 1 2.829 6.882 34.24 34.24 0 0 1 .838 2.794c.2.811.286 1.383.286 1.706h2.125c0-.59-.14-1.367-.347-2.213a36.364 36.364 0 0 0-.891-2.973 66.752 66.752 0 0 0-2.924-7.117l-1.916.92zM31.415 57c0 .193-.035.501-.117.93l2.087.401c.092-.478.155-.94.155-1.331h-2.125zm1.6 1.953c.45-.37.902-.758 1.352-1.16L32.95 56.21c-.428.383-.856.75-1.28 1.099l1.346 1.644zm1.352-1.16a51.375 51.375 0 0 0 3.254-3.19l-1.554-1.448a49.272 49.272 0 0 1-3.118 3.055l1.418 1.583zm10.63-16.184a36.922 36.922 0 0 0 3.141-.245c.87-.112 1.664-.264 2.2-.482l-.802-1.968c-.26.106-.817.233-1.669.342-.822.106-1.836.185-2.955.23l.085 2.123zm5.347-.73c.232-.096.475-.23.713-.377l-1.119-1.807a3.125 3.125 0 0 1-.409.222l.815 1.962zm.712-.377c1.627-1.005 4.438-3.55 6.762-6.142l-1.583-1.418c-2.275 2.539-4.926 4.906-6.296 5.752l1.117 1.808zm6.762-7.56c-.386-.43-.756-.862-1.107-1.29L55.067 33c.372.454.762.909 1.168 1.361l1.583-1.418zm-1.732-1.66c-1.214-.23-3.038-.78-5.1-1.543l-.737 1.993c2.104.78 4.056 1.375 5.442 1.637l.395-2.088zM50.99 29.74a66.103 66.103 0 0 1-5.356-2.285l-.92 1.915c1.83.88 3.748 1.693 5.531 2.36l.745-1.99zm-6.819-1.68a64.86 64.86 0 0 1-2.868 6.867c-.49.999-.962 1.874-1.383 2.57-.433.716-.777 1.182-1.005 1.41l1.504 1.502c.417-.418.868-1.066 1.319-1.811.462-.765.963-1.697 1.472-2.733a66.958 66.958 0 0 0 2.966-7.1l-2.005-.704zm-5.257 10.85a5.34 5.34 0 0 1-.733.573l1.195 1.758c.402-.274.769-.555 1.043-.83l-1.505-1.5zm-.242 2.51c.577.057 1.166.102 1.763.137l.122-2.122a39.77 39.77 0 0 1-1.673-.13l-.212 2.114zm1.764.137c1.536.087 3.115.102 4.553.054l-.07-2.123a49.612 49.612 0 0 1-4.363-.053l-.12 2.122zm18.99-3.948a35.559 35.559 0 0 0 2.372 2.051c.692.539 1.372 1.002 1.92 1.224l.799-1.969c-.254-.103-.734-.403-1.413-.931a33.573 33.573 0 0 1-2.227-1.927l-1.452 1.552zm4.282 3.271c.632.264 1.651.436 2.768.55 1.159.12 2.553.19 4.014.198l.014-2.125a40.94 40.94 0 0 1-3.81-.186c-1.12-.115-1.855-.267-2.167-.398l-.819 1.961zm6.782.748a51.895 51.895 0 0 0 3.113-.07l-.114-2.123a49.73 49.73 0 0 1-2.985.069l-.014 2.124zm4.116-1.07c.034-.572.078-1.135.132-1.683l-2.114-.21c-.058.578-.104 1.17-.14 1.77l2.122.123zm-.045-2.383c-.69-1.023-1.585-2.708-2.522-4.725l-1.927.895c.95 2.046 1.901 3.854 2.688 5.02l1.761-1.19zm-2.518-4.717a66.305 66.305 0 0 1-2.166-5.396l-2.005.703a68.408 68.408 0 0 0 2.236 5.572l1.935-.879zm-3.628-6.002a64.818 64.818 0 0 1-6.887 2.822 34.377 34.377 0 0 1-2.796.837c-.812.199-1.384.285-1.706.285v2.125c.59 0 1.366-.139 2.212-.346a36.447 36.447 0 0 0 2.974-.89 66.964 66.964 0 0 0 7.122-2.917l-.919-1.916zM57.025 31.4c-.194 0-.506-.035-.938-.117l-.396 2.088c.481.092.944.154 1.335.154V31.4zM55.067 33c.372.455.762.91 1.168 1.362l1.583-1.418c-.386-.43-.756-.862-1.107-1.29L55.067 33zm1.168 1.362a50.382 50.382 0 0 0 3.194 3.25l1.445-1.559a48.273 48.273 0 0 1-3.057-3.109l-1.582 1.419zm35.824 1.527c-.816.006-1.551.422-2.153.914-.62.506-1.23 1.199-1.814 1.988-1.172 1.581-2.352 3.698-3.417 5.91l1.915.921c1.038-2.157 2.151-4.138 3.21-5.566.53-.716 1.02-1.256 1.45-1.607.449-.367.718-.434.825-.435l-.016-2.125zm-7.383 8.81a71.594 71.594 0 0 0-2.361 5.519l1.986.757a69.493 69.493 0 0 1 2.288-5.352l-1.913-.923zm-2.364 5.527c-.785 2.108-1.385 4.065-1.648 5.45l2.087.396c.231-1.212.784-3.04 1.552-5.105l-1.991-.741zm-1.648 5.448c-.092.48-.153.939-.153 1.328h2.125c0-.192.033-.5.115-.929l-2.087-.399zm-.153 1.328c0 .59.139 1.367.347 2.213.213.867.519 1.88.891 2.972a66.737 66.737 0 0 0 2.926 7.115l1.915-.921a64.61 64.61 0 0 1-2.83-6.88 34.222 34.222 0 0 1-.839-2.794c-.2-.811-.285-1.383-.285-1.705H80.51zm5.472 12.842c2.257-.789 4.45-1.403 6.21-1.666.883-.132 1.613-.168 2.166-.113.579.058.812.2.883.27l1.496-1.508c-.58-.576-1.397-.8-2.168-.876-.797-.08-1.718-.02-2.69.125-1.95.291-4.284.953-6.598 1.762l.701 2.006zm9.25-1.517c.465.47.724 1.523.255 3.37l2.06.522c.514-2.024.486-4.08-.802-5.385l-1.512 1.493zm.256 3.365c-.088.341-.208.713-.35 1.11l2 .716c.155-.431.297-.868.408-1.294l-2.058-.532zm1.613 1.918c1.795-3.84 2.915-9.89 2.915-16.608h-2.125c0 6.542-1.099 12.25-2.715 15.708l1.925.9zM100.017 57c0-1.981-.1-3.895-.283-5.709l-2.114.214A55.13 55.13 0 0 1 97.892 57h2.125zm-.283-5.709c-.438-4.34-1.364-8.15-2.629-10.866l-1.926.897c1.13 2.429 2.017 5.984 2.44 10.183l2.115-.214zm-2.62-10.847c-.219-.496-.477-.937-.679-1.296l-1.852 1.041c.226.403.42.734.587 1.113l1.944-.858zm-.688-1.313c-1.058-1.805-2.507-3.224-4.348-3.244l-.023 2.125c.673.007 1.578.556 2.537 2.194l1.834-1.075z" fill="#8b8d90"/><path d="M96.42 71.974l1.03.266v-.005l-1.03-.26zm-.528-4.381l.757-.746-.008-.008-.749.754zm-10.35 1.262l-.35-1.003.35 1.003zm-5.477 2.195l-.439-.968h-.002l.44.968zm-4.866 2.61l.598.879-.598-.879zm-.902.705l-.741-.761-.006.005-.005.005.752.751zm-5.506 11.25l-1.002-.35-.314.896.856.412.46-.958zm8.215 6.445h1.062v-.006l-1.062.005zm-2.716 3.448l.54.915.003-.002-.543-.913zm-1.193.62l-.45-.961.808 1.963-.358-1.001zm13.487-9.463l-.751-.752-.002.002.752.75zm5.124-5.884l-.851-.635.851.635zm4.334-7.603l1 .357-1-.357zM77.006 92.06h1.062v-.006l-1.062.005zm-8.215-6.445l-.46.958.46-.958zm-5.43-2.321l.373-.995h-.003l-.37.995zm-5.272-1.601l.199-1.044h-.001l-.198 1.044zm-12.971 3.926l-.462-.957-.855.412.314.897 1.002-.352zm1.255 10.358l.752.75h.001l-.753-.75zm-4.367.526l-.265 1.03h.005l.26-1.03zm-1.292-.41l.364-.998-.82 1.958.456-.96zM64.819 98.4l.155 1.051-.155-1.05zm8.278-2.271l.451.962-.45-.962zm1.193-.62l.54.914.003-.002-.543-.913zm-27.917.468l.752.75h.001l-.753-.75zM45.118 85.62l-1.003.352 1.002-.352zm-2.199-5.48l.968-.438-.003-.007-.965.445zm-2.603-4.88l-.88.596.88-.596zm-.705-.894l-.752.75.005.006.747-.756zm-11.246-5.513l.352-1.002-.897-.315-.413.856.958.461zm-9.885 5.5l-.915.54.003.005.912-.546zm-.578-1.105l.96-.456-1.959.819 1-.363zm9.413 13.418l-.753.75.002.001.751-.75zm4.726 4.228l-.661.832.661-.832zm8.673 5.2l.364-.998-.364.998zm1.292.41l-.265 1.03h.005l.26-1.03zm-13.641-27.65l-.957-.462.957.461zm2.33-5.438l.994.375.003-.01-.998-.365zm1.596-5.28l1.043.2-1.044-.2zm-3.92-12.987l.959-.46-.412-.858-.898.315.352 1.003zm-10.346 1.259l.755-.748-.002-.002-.753.75zm-.543-4.364l-1.029-.264v.003l1.03.26zm.397-1.259l1 .36-1.962-.812.962.452zm-2.377 23.39l1.053-.139-1.053.139zm2.4 9.073l.96-.456-.96.456zm.578 1.105l-.915.54.003.005.912-.546zm-.455-27.945l.755-.748-.002-.002-.753.75zm10.347-1.26l.352 1.003-.352-1.002zm5.47-2.2l-.439-.968.44.967zm4.88-2.602l-.598-.878.598.878zm.889-.702l-.753-.75.753.75zm5.503-11.258l1.002.352.314-.897-.855-.412-.461.957zm-8.216-6.435l-1.062-.019v.028l1.062-.01zm2.718-3.457l-.54-.915-.002.001.542.914zm1.137-.592l.454.96-.815-1.96.361 1zm-13.426 9.434l.75.752h.001l-.75-.752zm-3.352 3.649l-.814-.684.814.684zm-6.096 9.8l-1-.36 1 .36zm-.397 1.259l-1.029-.264v.003l1.03.26zM36.898 21.95l-1.062-.019v.029l1.062-.01zm8.216 6.435l.46-.957-.46.957zm5.44 2.326l-.374.995h.004l.37-.995zm5.267 1.591l.198-1.044-.198 1.044zm12.976-3.917l.46.957.856-.411-.313-.897-1.003.35zm-1.259-10.35l.753.75.002-.002-.755-.748zm4.377-.538l.265-1.03-.011-.002-.254 1.032zm1.27.402l-.364.998.818-1.958-.455.96zM51.84 15.276l-.096-1.058.096 1.058zM40.753 17.9l-.453-.961.453.96zm-1.137.592l-.54-.915-.002.001.542.914zm27.922-.458l.753.75.002-.002-.755-.748zm1.259 10.35l-1.003.35 1.003-.35zm2.2 5.49l-.968.438.004.008.963-.447zM73.6 38.75l-.881.594.88-.594zm.697.892l-.754.749.007.008.747-.757zm11.246 5.507l-.35 1.003.896.313.412-.856-.958-.46zm6.43-8.219l.01-1.062h-.019l.008 1.062zm3.439 2.722l-.917.537.006.011.007.011.904-.559zm.632 1.206l-.972.428 1.974-.782-1.002.354zm-9.46-13.516l-.754.75h.002l.752-.75zM81.88 23.12l-.663.83.663-.83zm-8.697-5.221l-.363.998.363-.998zm-1.269-.402l.265-1.03-.011-.002-.254 1.032zM97.45 72.234c.513-2.025.486-4.083-.8-5.388l-1.514 1.492c.465.471.723 1.526.254 3.374l2.06.522zm-.809-5.396c-.58-.576-1.396-.8-2.167-.877-.796-.08-1.718-.02-2.69.126-1.947.291-4.28.954-6.593 1.764l.703 2.005c2.255-.79 4.446-1.404 6.205-1.668.882-.131 1.611-.168 2.164-.113.577.058.81.2.88.27l1.498-1.507zm-11.45 1.013a69.195 69.195 0 0 0-5.565 2.23l.877 1.936a67.104 67.104 0 0 1 5.391-2.16l-.703-2.006zm-5.567 2.23c-2.073.945-3.862 1.91-5.023 2.7l1.197 1.756c1.02-.695 2.688-1.602 4.707-2.521l-.88-1.934zm-5.022 2.7a7.953 7.953 0 0 0-1.046.822l1.481 1.523a5.97 5.97 0 0 1 .76-.588l-1.195-1.757zm-1.057.832c-.418.418-.87 1.067-1.321 1.813a36.273 36.273 0 0 0-1.473 2.734 66.744 66.744 0 0 0-2.963 7.103l2.006.703a64.617 64.617 0 0 1 2.865-6.87c.49-.998.961-1.873 1.383-2.57.433-.715.777-1.181 1.006-1.41l-1.503-1.503zm-5.214 12.959c2.155 1.037 4.139 2.153 5.568 3.213.717.532 1.258 1.023 1.61 1.454.367.451.434.72.434.825l2.125-.011c-.004-.818-.421-1.554-.912-2.157-.507-.621-1.201-1.232-1.99-1.818-1.584-1.174-3.703-2.357-5.914-3.421l-.921 1.915zm7.612 5.487c0 .653-.557 1.56-2.196 2.535l1.086 1.826c1.772-1.054 3.235-2.51 3.235-4.362h-2.125zm-2.194 2.534c-.325.192-.696.382-1.103.573l.903 1.924c.445-.21.88-.43 1.281-.668l-1.08-1.83zm-.294 2.536c4-1.428 9.1-4.918 13.881-9.715l-1.505-1.5c-4.654 4.67-9.495 7.93-13.09 9.213l.714 2.002zm13.88-9.713a55.333 55.333 0 0 0 5.225-6l-1.703-1.271a53.22 53.22 0 0 1-5.024 5.767l1.501 1.504zm5.225-6c2.092-2.802 3.64-5.524 4.482-7.882l-2-.715c-.75 2.098-2.174 4.632-4.185 7.326l1.703 1.271zm4.482-7.882c.154-.431.297-.869.407-1.295l-2.058-.531c-.088.342-.208.714-.35 1.111l2.001.715zm-18.974 18.52c-.004-.818-.421-1.554-.912-2.157-.507-.621-1.201-1.232-1.99-1.818-1.584-1.174-3.703-2.357-5.914-3.421l-.921 1.915c2.155 1.037 4.139 2.153 5.568 3.213.717.532 1.258 1.023 1.61 1.454.367.451.434.72.434.825l2.125-.011zm-8.816-7.396a68.663 68.663 0 0 0-5.517-2.359l-.748 1.99a66.53 66.53 0 0 1 5.343 2.284l.922-1.915zm-5.52-2.36c-2.12-.79-4.063-1.386-5.444-1.65l-.398 2.088c1.208.23 3.022.78 5.1 1.554l.741-1.992zm-5.445-1.65c-.479-.09-.939-.151-1.33-.151v2.124c.196 0 .505.034.934.116l.396-2.088zm-1.33-.151c-.59 0-1.368.138-2.215.347a36.07 36.07 0 0 0-2.972.891 66.558 66.558 0 0 0-7.114 2.927l.923 1.914a64.436 64.436 0 0 1 6.877-2.83 34.127 34.127 0 0 1 2.794-.839c.811-.2 1.384-.285 1.707-.285v-2.126zM44.115 85.97c.79 2.256 1.406 4.448 1.668 6.208.131.882.166 1.611.11 2.164-.058.578-.2.812-.273.885l1.506 1.499c.578-.58.803-1.397.882-2.17.08-.797.021-1.719-.123-2.691-.29-1.95-.953-4.284-1.765-6.599l-2.005.704zm1.505 9.256c-.471.473-1.482.717-3.354.246l-.52 2.06c2.02.51 4.062.515 5.38-.806l-1.505-1.5zm-3.35.247a12.969 12.969 0 0 1-1.192-.379l-.728 1.997c.466.17.935.323 1.391.44l.53-2.058zm-2.013 1.579c3.832 1.824 9.918 2.964 16.688 2.964v-2.125c-6.594 0-12.332-1.12-15.774-2.758l-.914 1.919zm16.688 2.964c2.848 0 5.56-.201 8.029-.566l-.31-2.102c-2.361.349-4.97.543-7.719.543v2.125zm8.029-.566c3.384-.5 6.34-1.313 8.574-2.36l-.901-1.924c-1.99.932-4.731 1.702-7.984 2.182l.31 2.102zm8.575-2.36c.445-.21.88-.43 1.281-.668l-1.08-1.83a13.17 13.17 0 0 1-1.104.574l.903 1.924zm1.284-.67c1.772-1.054 3.235-2.51 3.235-4.362h-2.125c0 .654-.557 1.561-2.196 2.536l1.086 1.826zm-27.707.306c.578-.58.803-1.397.882-2.17.08-.797.021-1.719-.123-2.691-.29-1.95-.953-4.284-1.765-6.599l-2.005.704c.79 2.256 1.406 4.448 1.668 6.208.131.882.166 1.611.11 2.164-.058.578-.2.812-.273.885l1.506 1.499zm-1.006-11.46a69.091 69.091 0 0 0-2.233-5.566l-1.935.877a66.932 66.932 0 0 1 2.163 5.392l2.005-.703zm-2.236-5.573c-.944-2.047-1.896-3.862-2.689-5.031l-1.759 1.193c.694 1.023 1.588 2.71 2.519 4.729l1.93-.89zm-2.689-5.03c-.273-.404-.556-.776-.838-1.055l-1.493 1.512c.135.134.327.373.572.734l1.76-1.192zm-.832-1.05c-.417-.417-1.065-.87-1.81-1.32a36.33 36.33 0 0 0-2.734-1.475 66.85 66.85 0 0 0-7.102-2.97l-.704 2.006c2.421.85 4.872 1.89 6.869 2.871a34.27 34.27 0 0 1 2.57 1.385c.714.433 1.179.777 1.407 1.005l1.504-1.501zM27.407 68.39c-1.039 2.16-2.156 4.146-3.214 5.576-.531.718-1.02 1.258-1.449 1.609-.449.367-.71.428-.805.428v2.125c.817 0 1.552-.419 2.15-.909.62-.505 1.228-1.199 1.812-1.989 1.172-1.583 2.355-3.704 3.421-5.918l-1.915-.922zm-5.468 7.613c-.671 0-1.557-.544-2.547-2.198l-1.824 1.091c1.068 1.782 2.504 3.232 4.37 3.232v-2.125zm-2.544-2.193a12.693 12.693 0 0 1-.533-1.02l-1.92.911c.194.41.401.815.623 1.19l1.83-1.081zm-2.492-.202c1.449 3.987 4.923 9.046 9.659 13.806l1.506-1.5c-4.613-4.636-7.862-9.44-9.167-13.031l-1.998.725zm9.66 13.807a57.02 57.02 0 0 0 4.817 4.309l1.322-1.664a54.911 54.911 0 0 1-4.636-4.147l-1.502 1.502zm4.817 4.309c3.178 2.527 6.303 4.395 8.97 5.367l.728-1.997c-2.382-.867-5.306-2.594-8.376-5.034l-1.322 1.664zm8.97 5.367c.466.17.935.323 1.391.44l.53-2.058a12.969 12.969 0 0 1-1.193-.379l-.728 1.997zm1.396.441c2.02.51 4.062.515 5.38-.806l-1.505-1.5c-.472.473-1.483.717-3.355.246l-.52 2.06zM21.938 78.13c.818 0 1.553-.419 2.152-.909.618-.505 1.227-1.199 1.811-1.989 1.172-1.583 2.355-3.704 3.421-5.918l-1.915-.922c-1.039 2.16-2.156 4.146-3.214 5.576-.531.718-1.02 1.258-1.449 1.609-.449.367-.71.428-.805.428v2.125zm7.384-8.816a69.49 69.49 0 0 0 2.367-5.523l-1.989-.75a67.383 67.383 0 0 1-2.292 5.351l1.914.922zm2.37-5.533c.773-2.113 1.376-4.062 1.642-5.444l-2.087-.402c-.233 1.214-.789 3.035-1.55 5.116l1.995.73zm1.642-5.445c.092-.479.154-.94.154-1.332h-2.125c0 .194-.034.502-.116.932l2.087.4zm.154-1.332c0-.59-.138-1.368-.346-2.215a36.451 36.451 0 0 0-.89-2.976 66.884 66.884 0 0 0-2.922-7.124l-1.916.92a64.773 64.773 0 0 1 2.826 6.89 34.36 34.36 0 0 1 .838 2.797c.2.812.285 1.384.285 1.708h2.126zM28.02 44.145c-2.26.794-4.452 1.41-6.21 1.673-.882.132-1.61.167-2.16.11-.575-.058-.802-.2-.87-.269l-1.51 1.496c.577.582 1.394.81 2.165.888.795.081 1.716.022 2.688-.123 1.948-.29 4.284-.955 6.601-1.77l-.704-2.005zm-9.242 1.512c-.477-.479-.732-1.51-.266-3.353l-2.06-.522c-.513 2.024-.485 4.063.82 5.375l1.506-1.5zm-.267-3.35c.092-.358.218-.747.367-1.163l-1.999-.72c-.163.453-.312.91-.426 1.355l2.058.528zm-1.594-1.975c-1.808 3.844-2.934 9.919-2.934 16.67h2.125c0-6.576 1.105-12.307 2.732-15.766l-1.923-.904zm-2.934 16.67c0 2.577.166 5.037.465 7.31l2.107-.277a54.143 54.143 0 0 1-.447-7.032h-2.125zm.465 7.31c.49 3.73 1.353 6.987 2.494 9.39l1.92-.911c-1.016-2.137-1.834-5.16-2.307-8.756l-2.107.278zm2.494 9.39c.194.41.401.815.623 1.19l1.83-1.081a12.693 12.693 0 0 1-.533-1.02l-1.92.911zm.626 1.195c1.068 1.782 2.504 3.232 4.37 3.232v-2.125c-.67 0-1.556-.544-2.546-2.198l-1.824 1.091zm-.298-27.742c.577.582 1.394.81 2.165.888.795.081 1.716.022 2.688-.123 1.948-.29 4.284-.955 6.601-1.77l-.704-2.005c-2.26.794-4.452 1.41-6.21 1.673-.882.132-1.61.167-2.16.11-.575-.058-.802-.2-.87-.269l-1.51 1.496zm11.454-1.005a68.619 68.619 0 0 0 5.56-2.237l-.881-1.934a66.545 66.545 0 0 1-5.384 2.166l.705 2.005zm5.559-2.236c2.067-.94 3.874-1.897 5.038-2.69l-1.197-1.756c-1.017.693-2.697 1.591-4.72 2.511l.879 1.934zm5.038-2.69a7.468 7.468 0 0 0 1.043-.831l-1.506-1.5a5.32 5.32 0 0 1-.734.574l1.197 1.756zm1.042-.831c.417-.418.868-1.067 1.318-1.813.462-.765.963-1.699 1.471-2.736a67.105 67.105 0 0 0 2.964-7.107l-2.005-.703a64.952 64.952 0 0 1-2.867 6.874c-.49 1-.96 1.876-1.382 2.574-.432.716-.776 1.182-1.004 1.411l1.505 1.5zm5.212-12.965c-2.156-1.038-4.139-2.155-5.568-3.215-.717-.531-1.258-1.021-1.61-1.452-.37-.45-.435-.717-.436-.82l-2.125.019c.007.814.425 1.547.916 2.147.507.619 1.2 1.228 1.99 1.813 1.582 1.174 3.699 2.357 5.91 3.423l.923-1.915zM37.96 21.97c.013-.692.561-1.593 2.197-2.563l-1.083-1.828c-1.81 1.073-3.205 2.513-3.238 4.352l2.124.039zm2.195-2.561c.31-.183.664-.364 1.052-.548l-.908-1.92c-.42.198-.837.41-1.223.637l1.08 1.83zm.237-2.507c-3.988 1.443-9.055 4.926-13.816 9.681l1.502 1.504c4.637-4.632 9.448-7.888 13.037-9.187l-.723-1.998zm-13.815 9.68a57.535 57.535 0 0 0-3.416 3.718l1.627 1.368a55.356 55.356 0 0 1 3.29-3.58l-1.5-1.506zM23.161 30.3c-3.007 3.58-5.208 7.144-6.282 10.124l2 .72c.96-2.664 2.997-6.011 5.91-9.476L23.16 30.3zM16.88 40.425c-.163.453-.312.91-.426 1.355l2.058.528c.092-.358.218-.747.367-1.163l-1.999-.72zm-.427 1.358c-.513 2.024-.485 4.063.82 5.375l1.506-1.5c-.477-.479-.732-1.51-.266-3.353l-2.06-.522zM35.836 21.96c.007.814.425 1.547.916 2.147.507.619 1.2 1.228 1.99 1.813 1.582 1.174 3.699 2.357 5.91 3.423l.923-1.915c-2.156-1.038-4.139-2.155-5.568-3.215-.717-.531-1.258-1.021-1.61-1.452-.37-.45-.435-.717-.436-.82l-2.125.019zm8.817 7.383a68.102 68.102 0 0 0 5.527 2.363l.747-1.99a65.977 65.977 0 0 1-5.352-2.288l-.922 1.915zm5.53 2.364c2.104.78 4.055 1.377 5.44 1.64l.396-2.089c-1.214-.23-3.037-.78-5.096-1.543l-.74 1.992zm5.44 1.64c.48.09.943.153 1.334.153v-2.125c-.195 0-.506-.035-.938-.117l-.397 2.088zm1.334.153c.59 0 1.366-.139 2.211-.347.867-.213 1.88-.517 2.972-.89a66.828 66.828 0 0 0 7.117-2.92l-.92-1.916a64.698 64.698 0 0 1-6.882 2.825 34.248 34.248 0 0 1-2.794.838c-.81.199-1.382.285-1.704.285V33.5zM69.8 28.034c-.79-2.26-1.404-4.452-1.665-6.212-.132-.882-.167-1.61-.112-2.162.058-.577.2-.807.268-.875l-1.505-1.5c-.577.578-.8 1.394-.877 2.163-.08.795-.02 1.716.124 2.687.29 1.948.95 4.283 1.76 6.6l2.007-.701zm-1.507-9.251c.46-.465 1.49-.717 3.368-.255l.508-2.063c-2.02-.497-4.081-.494-5.385.822l1.509 1.496zm3.357-.258c.36.093.752.22 1.171.372l.726-1.997a14.965 14.965 0 0 0-1.367-.432l-.53 2.058zm1.99-1.586c-3.839-1.82-9.92-2.956-16.683-2.956v2.125c6.586 0 12.321 1.115 15.772 2.75l.91-1.92zm-16.683-2.956c-1.803 0-3.548.083-5.212.235l.192 2.116a55.448 55.448 0 0 1 5.02-.226v-2.125zm-5.213.235c-4.595.419-8.61 1.384-11.444 2.722l.907 1.921c2.533-1.196 6.283-2.122 10.73-2.527l-.193-2.116zM40.3 16.94c-.42.2-.837.41-1.223.638l1.08 1.83c.31-.182.663-.363 1.051-.547l-.908-1.92zm-1.225.64c-1.81 1.072-3.205 2.512-3.238 4.351l2.124.039c.013-.692.561-1.593 2.197-2.563l-1.083-1.828zm27.712-.295c-.577.578-.8 1.394-.877 2.163-.08.795-.02 1.716.124 2.687.29 1.948.95 4.283 1.76 6.6l2.007-.701c-.79-2.26-1.404-4.452-1.665-6.212-.132-.882-.167-1.61-.112-2.162.058-.577.2-.807.268-.875l-1.505-1.5zm1.008 11.45a68.552 68.552 0 0 0 2.235 5.578l1.935-.877a66.493 66.493 0 0 1-2.164-5.402l-2.006.701zm2.239 5.586c.95 2.048 1.9 3.858 2.686 5.024l1.762-1.188c-.69-1.024-1.584-2.71-2.52-4.73l-1.928.894zm2.686 5.025c.27.4.549.77.824 1.046l1.507-1.498c-.135-.136-.326-.377-.57-.737l-1.76 1.189zm.832 1.054c.416.41 1.062.86 1.808 1.31a36.83 36.83 0 0 0 2.731 1.475 65.339 65.339 0 0 0 7.103 2.968l.7-2.006a63.201 63.201 0 0 1-6.864-2.868 34.739 34.739 0 0 1-2.57-1.386c-.715-.433-1.184-.778-1.416-1.007L73.55 40.4zm12.95 5.21c1.037-2.16 2.15-4.143 3.206-5.572.53-.717 1.02-1.257 1.45-1.61.449-.366.717-.433.823-.434l-.016-2.125c-.816.006-1.55.423-2.152.915-.62.507-1.229 1.2-1.813 1.99-1.171 1.583-2.35 3.702-3.414 5.916l1.916.92zm5.46-7.616c.671.007 1.575.556 2.534 2.196l1.834-1.073c-1.057-1.807-2.504-3.228-4.345-3.248l-.023 2.125zm2.547 2.218c.21.339.39.681.564 1.075l1.945-.856a10.668 10.668 0 0 0-.702-1.337l-1.807 1.118zm2.538.292c-1.416-4-4.919-9.113-9.71-13.912l-1.504 1.502c4.669 4.675 7.94 9.527 9.21 13.12l2.004-.71zm-9.71-13.91a56.305 56.305 0 0 0-4.793-4.305l-1.325 1.661a54.171 54.171 0 0 1 4.612 4.142l1.507-1.499zm-4.793-4.305c-3.191-2.545-6.329-4.42-8.996-5.389l-.725 1.997c2.38.865 5.315 2.596 8.396 5.053l1.325-1.661zM73.547 16.9a14.965 14.965 0 0 0-1.367-.432l-.53 2.058c.36.092.752.22 1.171.371l.726-1.997zm-1.378-.435c-2.02-.497-4.081-.494-5.385.822l1.509 1.496c.46-.465 1.49-.717 3.368-.255l.508-2.063z" fill="#8b8d90"/></svg>